<?xml version="1.0" standalone="no"?>
<!DOCTYPE svg PUBLIC "-//W3C//DTD SVG 20010904//EN"
 "http://www.w3.org/TR/2001/REC-SVG-20010904/DTD/svg10.dtd">
<svg version="1.0" xmlns="http://www.w3.org/2000/svg"
 width="1280.000000pt" height="342.000000pt" viewBox="0 0 1280.000000 342.000000"
 preserveAspectRatio="xMidYMid meet">

<g transform="translate(0.000000,342.000000) scale(0.100000,-0.100000)"
fill="#000000" stroke="none">
<path d="M2140 2888 c-117 -14 -328 -112 -740 -341 l-205 -115 -3 -295 -2
-295 432 -238 c237 -132 437 -240 445 -242 10 -3 13 42 13 235 0 211 -3 243
-19 279 -26 57 -89 106 -242 190 l-132 72 44 28 c83 52 254 144 309 166 43 18
76 22 155 23 95 0 104 -2 175 -37 41 -20 100 -51 130 -69 30 -17 52 -28 48
-24 -4 5 0 14 10 22 16 14 16 14 -1 9 -12 -4 -16 -2 -11 6 5 7 0 9 -14 6 -13
-4 -20 -2 -16 4 3 5 15 7 26 5 16 -5 17 -3 6 11 -10 12 -10 14 0 8 9 -5 12 4
12 38 0 26 5 46 13 49 10 4 10 6 0 6 -18 1 -17 70 1 77 8 3 35 -2 60 -10 26
-9 50 -16 54 -16 4 0 5 43 2 95 -3 60 -1 95 5 95 6 1 2 7 -8 14 -13 10 -15 19
-9 36 7 19 9 20 21 6 8 -9 18 -16 24 -16 43 0 -262 155 -381 194 -91 29 -128
34 -202 24z"/>
<path d="M2685 2660 c3 -5 11 -10 16 -10 6 0 7 5 4 10 -3 6 -11 10 -16 10 -6
0 -7 -4 -4 -10z"/>
<path d="M4219 2265 c-160 -32 -251 -119 -265 -252 -11 -108 31 -201 114 -254
26 -16 99 -46 162 -65 164 -50 245 -82 265 -104 10 -11 20 -41 22 -67 6 -59
-20 -97 -75 -113 -90 -25 -304 -7 -421 34 -24 9 -45 16 -47 16 -2 0 -4 -43 -4
-95 0 -110 -5 -106 125 -130 166 -31 336 -27 451 11 158 51 236 199 190 358
-33 112 -118 172 -332 232 -145 41 -197 65 -213 101 -29 64 1 124 73 142 72
18 240 14 334 -9 46 -11 85 -20 88 -20 2 0 4 42 4 94 l0 94 -47 11 c-140 32
-309 39 -424 16z"/>
<path d="M5958 2187 l-108 -30 0 -84 0 -83 -55 0 -55 0 0 -85 0 -85 55 0 55 0
0 -206 c0 -134 4 -221 12 -247 17 -57 82 -122 138 -138 56 -16 191 -16 248 0
l42 12 0 72 0 73 -70 -4 c-81 -5 -122 8 -139 44 -7 16 -11 94 -11 209 l0 185
95 0 95 0 0 39 c0 21 3 59 6 85 l7 46 -101 0 -101 0 -3 113 -3 114 -107 -30z"/>
<path d="M2307 2044 c-12 -12 -8 -409 4 -466 17 -79 89 -144 258 -234 l133
-72 -84 -50 c-255 -150 -324 -177 -446 -169 -100 6 -154 30 -392 174 -91 55
-201 120 -245 145 -44 25 -98 56 -120 69 -104 59 -200 109 -211 109 -9 0 -12
-67 -13 -284 l-2 -283 38 -23 c144 -87 238 -137 463 -250 140 -70 296 -142
345 -160 81 -29 99 -31 175 -27 111 6 186 31 395 137 198 100 577 309 587 324
4 6 8 140 8 297 l0 286 -432 239 c-237 132 -437 240 -443 242 -6 1 -14 0 -18
-4z"/>
<path d="M5155 2004 c-45 -5 -122 -20 -177 -35 l-38 -10 0 -75 0 -76 27 7
c133 33 312 39 376 12 38 -17 67 -62 67 -107 0 -19 -6 -20 -132 -20 -164 0
-237 -11 -308 -47 -71 -37 -112 -99 -118 -183 -5 -72 11 -122 54 -170 55 -61
120 -84 239 -83 107 0 185 20 244 62 l30 21 3 -32 3 -33 98 -3 98 -3 -3 288
c-3 287 -3 289 -28 338 -30 58 -95 107 -172 130 -53 15 -196 26 -263 19z m255
-503 c0 -57 -2 -61 -35 -87 -50 -38 -100 -53 -178 -54 -104 0 -147 30 -147
102 0 39 23 76 54 88 11 5 85 9 164 9 l142 1 0 -59z"/>
<path d="M7560 2004 c-179 -23 -294 -137 -321 -320 -29 -194 45 -352 198 -422
121 -55 321 -63 473 -19 l45 13 3 77 c2 42 1 77 -2 77 -3 0 -35 -7 -73 -16
-48 -11 -102 -15 -183 -12 -146 4 -202 27 -238 98 l-22 45 285 3 285 2 0 98
c0 58 -6 119 -15 149 -29 97 -111 179 -207 208 -54 16 -173 25 -228 19z m162
-164 c55 -16 88 -60 88 -121 l0 -49 -185 0 c-170 0 -185 1 -185 18 0 31 20 90
38 112 35 43 158 63 244 40z"/>
<path d="M8574 1986 c-50 -13 -114 -36 -142 -50 l-52 -26 0 40 0 40 -105 0
-105 0 0 -380 0 -380 110 0 110 0 0 265 0 266 45 19 c25 11 88 30 140 42 l95
23 0 82 c0 46 -1 83 -2 83 -2 -1 -44 -12 -94 -24z"/>
<path d="M8982 2000 c-86 -12 -163 -49 -198 -96 -27 -35 -29 -44 -29 -125 0
-73 3 -92 21 -116 32 -44 116 -89 249 -133 68 -23 130 -49 140 -60 22 -24 12
-58 -22 -71 -54 -20 -247 -6 -360 27 -23 6 -23 5 -23 -84 l0 -90 51 -11 c114
-25 247 -33 337 -22 175 23 252 91 252 222 0 146 -49 191 -285 263 -143 43
-176 73 -123 110 30 21 202 22 281 1 32 -8 60 -15 63 -15 3 0 3 39 2 88 l-3
87 -60 12 c-86 17 -220 23 -293 13z"/>
<path d="M9810 2000 c-206 -32 -328 -205 -305 -434 17 -180 116 -294 291 -337
74 -18 276 -14 359 8 l70 18 3 78 c2 42 1 77 -2 77 -3 0 -35 -7 -73 -16 -49
-11 -102 -15 -188 -12 -147 5 -196 25 -233 98 l-22 45 285 3 285 2 0 98 c0
155 -37 244 -132 312 -74 54 -217 79 -338 60z m182 -160 c55 -16 88 -60 88
-121 l0 -49 -185 0 c-170 0 -185 1 -185 18 0 31 20 90 38 112 35 43 158 63
244 40z"/>
<path d="M6357 1948 c9 -24 79 -194 154 -378 l137 -335 123 0 122 0 153 375
152 375 -106 3 c-58 1 -111 1 -117 -2 -6 -2 -53 -121 -105 -265 -52 -143 -97
-261 -100 -261 -3 0 -48 119 -100 265 l-95 265 -117 0 -118 0 17 -42z"/>
</g>
</svg>
